<?xml version="1.0" encoding="UTF-8"?>
<svg version="1.1" xmlns="http://www.w3.org/2000/svg" width="512" height="512">
<path d="M0 0 C1.37064105 -0.00417707 2.74127865 -0.00965663 4.11190987 -0.01631981 C7.86378207 -0.03074403 11.61543404 -0.02653926 15.36731815 -0.019153 C19.41919567 -0.01441618 23.4710259 -0.02693563 27.52288818 -0.03717041 C35.45474756 -0.05435298 43.3865277 -0.05519964 51.31840086 -0.04995751 C57.76551841 -0.045914 64.21261257 -0.04736151 70.659729 -0.05270576 C71.57775523 -0.05345419 72.49578146 -0.05420261 73.44162667 -0.05497371 C75.30665255 -0.0565052 77.17167843 -0.05804355 79.0367043 -0.05958868 C96.51989484 -0.07331145 114.00304062 -0.06787732 131.48623013 -0.05640347 C147.47854796 -0.04646863 163.47075014 -0.05941649 179.46305013 -0.08333766 C195.88921432 -0.1077225 212.31532464 -0.11733821 228.74150658 -0.11068493 C237.96151468 -0.10719169 247.18143381 -0.10943185 256.40142822 -0.12693596 C264.24908977 -0.14165012 272.09659966 -0.14230354 279.94425821 -0.12486505 C283.94732664 -0.11634667 287.95012404 -0.11422584 291.95317841 -0.1295166 C295.61976002 -0.14334869 299.28583806 -0.13862011 302.95239043 -0.11927737 C304.90258967 -0.11373292 306.85281444 -0.12780115 308.80296516 -0.14263147 C317.37614598 -0.07056211 323.85641495 1.2741434 330.23779297 7.45018005 C339.35973985 17.72558951 338.05954024 30.935583 338.00537109 43.80906677 C338.01079769 45.97676563 338.01792335 48.1444608 338.02661133 50.31214905 C338.04478572 56.17591256 338.03780078 62.03939331 338.02509499 67.90316153 C338.01493425 74.05500111 338.02436943 80.20681725 338.03063965 86.35865784 C338.03790819 96.68982771 338.02835025 107.02088305 338.00927734 117.35203552 C337.98752177 129.27349725 337.99455378 141.19468518 338.01658297 153.11614025 C338.03477328 163.37297965 338.03727719 173.62973693 338.02682829 183.88658726 C338.02061185 190.00307455 338.01970649 196.11943343 338.03297424 202.23591232 C338.04458456 207.9898666 338.03641248 213.74347027 338.01339722 219.49738693 C338.00813725 221.60115478 338.00957701 223.70495247 338.01844788 225.80870819 C338.07525182 240.65635783 338.02727064 254.06540561 327.00341797 265.2900238 C321.34204292 270.01076666 314.48265973 273.51659395 307.02693176 273.50793457 C306.11407913 273.50930923 305.2012265 273.5106839 304.26071167 273.51210022 C303.26161774 273.50850494 302.2625238 273.50490967 301.2331543 273.50120544 C299.65241875 273.50142448 299.65241875 273.50142448 298.03974915 273.50164795 C294.54975337 273.5009502 291.05981069 273.49316421 287.56982422 273.4853363 C285.15272552 273.48347163 282.73562644 273.48204796 280.31852722 273.48104858 C273.95137492 273.47722726 267.58424536 273.46740023 261.21710205 273.4563446 C254.72204903 273.44612223 248.22699234 273.44154919 241.73193359 273.43650818 C228.98387671 273.42577765 216.23583673 273.40870581 203.48779297 273.38768005 C203.81779297 278.00768005 204.14779297 282.62768005 204.48779297 287.38768005 C206.52907379 287.37879761 208.57035461 287.36991516 210.67349243 287.36076355 C229.89087574 287.27905147 249.10823615 287.21950932 268.32575417 287.18043137 C278.2061715 287.15980598 288.08646136 287.13168579 297.96679688 287.08592224 C306.57848457 287.0460538 315.19007994 287.02024707 323.80185735 287.01132607 C328.36178158 287.00611134 332.9214417 286.99385531 337.48128128 286.96475983 C341.77405586 286.9375906 346.06645776 286.92923808 350.35931015 286.93524933 C351.93389156 286.93414976 353.50848555 286.92620467 355.08299255 286.91085815 C357.23584781 286.89090552 359.38730285 286.8957586 361.54019165 286.90666199 C362.74405329 286.90297482 363.94791492 286.89928764 365.18825722 286.89548874 C369.97215621 287.60910232 373.08591313 289.84077816 376.30029297 293.38768005 C378.60871752 297.27555298 378.61187606 300.95495796 378.60804749 305.41142273 C378.61010948 307.26237045 378.61010948 307.26237045 378.61221313 309.15071106 C378.60867424 310.51518274 378.60503944 311.87965417 378.60131836 313.24412537 C378.60103624 314.68312071 378.60119471 316.12211619 378.60176086 317.56111145 C378.60204787 321.46572134 378.59616668 325.37030054 378.58918691 329.2749033 C378.58293736 333.3561748 378.5823483 337.43744699 378.5811615 341.51872253 C378.57805291 349.24636018 378.56984588 356.97398368 378.55981201 364.7016151 C378.54863622 373.49960381 378.54313672 382.2975932 378.53811657 391.09558725 C378.52766288 409.19295954 378.51007257 427.29031866 378.48779297 445.38768005 C379.45201172 445.35287537 380.41623047 445.31807068 381.40966797 445.2822113 C382.67294922 445.25514099 383.93623047 445.22807068 385.23779297 445.20018005 C386.49076172 445.16537537 387.74373047 445.13057068 389.03466797 445.0947113 C392.64211662 445.40077312 393.99083026 445.83510651 396.48779297 448.38768005 C397.00537109 450.40550232 397.00537109 450.40550232 397.01904297 452.7040863 C397.02750244 453.54600525 397.03596191 454.38792419 397.04467773 455.25535583 C397.02590576 456.14464783 397.00713379 457.03393982 396.98779297 457.95018005 C396.97353271 458.85751892 396.95927246 459.76485779 396.94458008 460.69969177 C396.60046005 471.60368886 393.55516522 478.23271523 386.00341797 486.18455505 C378.66492978 492.61142981 370.98807932 494.53684814 361.46263123 494.53485107 C360.52790657 494.53852776 359.59318191 494.54220445 358.63013226 494.54599255 C355.48429166 494.55704399 352.33848407 494.56087574 349.19262695 494.56468201 C346.94242752 494.57094564 344.69222912 494.57759235 342.44203186 494.58459473 C336.31777004 494.60201566 330.19351603 494.61255986 324.06923556 494.62080026 C320.24305062 494.62594897 316.41686812 494.63202482 312.59068489 494.63831139 C301.99202354 494.65518362 291.39336435 494.66981745 280.79469204 494.67706013 C278.0445245 494.67896995 275.29435696 494.68089029 272.54418945 494.68284607 C271.51890677 494.68357168 271.51890677 494.68357168 270.47291131 494.68431195 C259.40911252 494.69260591 248.34542208 494.71793146 237.28167056 494.75042675 C225.91585627 494.7835362 214.55011632 494.80118 203.1842466 494.80470437 C196.80557878 494.80705458 190.42708212 494.81601129 184.04846001 494.84116554 C178.04433049 494.86445966 172.04048465 494.86867388 166.03632164 494.85840416 C163.83614407 494.85790899 161.63595247 494.8642237 159.43581772 494.87796021 C156.42415411 494.8957067 153.41350547 494.88855892 150.40184021 494.87542725 C149.53809688 494.88639649 148.67435354 494.89736574 147.78443617 494.90866739 C138.04601873 494.80666532 130.45216744 491.18668242 123.46435547 484.5322113 C116.3215517 476.78241037 114.12992247 468.58922246 114.11279297 458.20018005 C114.08830078 457.40676208 114.06380859 456.61334412 114.03857422 455.79588318 C114.03470703 455.02824646 114.03083984 454.26060974 114.02685547 453.4697113 C114.0186377 452.78111023 114.01041992 452.09250916 114.00195312 451.38304138 C114.48779297 449.38768005 114.48779297 449.38768005 118.48779297 445.38768005 C123.10779297 445.38768005 127.72779297 445.38768005 132.48779297 445.38768005 C132.48779297 419.97768005 132.48779297 394.56768005 132.48779297 368.38768005 C109.5268705 368.50621876 109.5268705 368.50621876 86.56616211 368.65794373 C82.09997559 368.67149353 82.09997559 368.67149353 80.00144958 368.67401123 C78.55265021 368.6785829 77.10386142 368.68906051 75.65513611 368.70440674 C57.48688705 368.88704591 57.48688705 368.88704591 50.18310547 363.7743988 C44.43541514 357.55488315 41.48779297 351.97414651 41.48779297 343.38768005 C42.29623369 336.45277445 45.23981166 331.63566137 50.17529297 326.70018005 C57.28756659 321.17991071 65.88689579 320.89148535 74.55029297 320.70018005 C75.60667969 320.6660199 76.66306641 320.63185974 77.75146484 320.59666443 C80.33013454 320.51498711 82.90849858 320.44558062 85.48779297 320.38768005 C88.8289547 309.79528587 92.0516172 299.42966882 93.48779297 288.38768005 C93.83637626 285.76913972 94.18526997 283.15064285 94.53466797 280.5322113 C94.67267822 279.49755737 94.67267822 279.49755737 94.81347656 278.44200134 C95.03821102 276.75722255 95.26299671 275.0724506 95.48779297 273.38768005 C94.94040781 273.39136723 94.39302265 273.3950544 93.82905006 273.3988533 C80.47328002 273.48742014 67.11756184 273.55323827 53.76156044 273.59492874 C47.30251722 273.61577036 40.84368654 273.64402598 34.38476562 273.68943787 C28.14722998 273.73301693 21.90989832 273.75684292 15.67222214 273.76718903 C13.29686652 273.77455869 10.92152159 273.78894981 8.5462532 273.81060028 C5.20962978 273.83979374 1.87384072 273.84362929 -1.46289062 273.84178162 C-2.43681763 273.85616272 -3.41074463 273.87054382 -4.41418457 273.88536072 C-15.10616161 273.82162837 -22.71533362 270.0825747 -30.37939453 262.75486755 C-37.13308882 255.25900905 -38.81819149 246.16672399 -38.77290344 236.37503052 C-38.77672899 235.48997434 -38.78055454 234.60491816 -38.78449601 233.6930421 C-38.7947817 230.73922423 -38.79084227 227.78560236 -38.78686523 224.83177185 C-38.7912142 222.70905885 -38.79639796 220.58634741 -38.80235291 218.46363831 C-38.81573529 212.70528285 -38.81632234 206.94699307 -38.81378961 201.1886251 C-38.81271924 196.37761559 -38.81760504 191.56661934 -38.82239503 186.75561267 C-38.8334879 175.402571 -38.83392905 164.04956241 -38.82788086 152.69651794 C-38.82184241 140.99438891 -38.83414938 129.29238016 -38.85545093 117.59027165 C-38.87308025 107.53484796 -38.87906612 97.4794625 -38.87581319 87.42402393 C-38.87400209 81.42216237 -38.87661919 75.42038658 -38.89052773 69.41853905 C-38.90312278 63.77223487 -38.90114595 58.12611781 -38.88811684 52.47981644 C-38.88575506 50.41187412 -38.8884714 48.34391857 -38.89673996 46.27599144 C-38.90724303 43.44420596 -38.89907818 40.61304418 -38.88642883 37.78128052 C-38.89380312 36.97084799 -38.9011774 36.16041546 -38.90877515 35.32542437 C-38.80619517 24.34380996 -35.20254812 16.25473981 -27.62548828 8.44236755 C-19.1813587 0.51251698 -11.19352591 -0.05326344 0 0 Z M-23.51220703 222.38768005 C-24.90912984 239.62676498 -24.90912984 239.62676498 -18.19970703 253.13768005 C-11.32558275 258.89276084 -5.39849384 258.81619 3.24145508 258.76863098 C4.54091788 258.77331095 5.84038069 258.77799093 7.17922115 258.78281271 C10.77986113 258.79532853 14.38026235 258.78914979 17.98090315 258.77985406 C21.86644573 258.77306626 25.75194726 258.78354346 29.63748169 258.79179382 C37.24676757 258.80513623 44.8559647 258.80225116 52.46525407 258.7935559 C58.64927795 258.78678176 64.83327694 258.78586147 71.01730347 258.78912735 C71.89732306 258.78958705 72.77734266 258.79004675 73.68402952 258.79052038 C75.47175194 258.79147955 77.25947434 258.79245219 79.04719675 258.79343815 C95.81212081 258.80199353 112.57699568 258.79215559 129.34191167 258.77603705 C143.72812852 258.76263374 158.11427275 258.76496179 172.50048828 258.77879333 C189.20527244 258.79484653 205.91001347 258.80116954 222.61480427 258.79195654 C224.39596366 258.79100089 226.17712306 258.79005778 227.95828247 258.78912735 C229.27284177 258.78843311 229.27284177 258.78843311 230.61395782 258.78772485 C236.79081599 258.78513418 242.9676468 258.78950761 249.14450073 258.79656601 C256.67165453 258.80497831 264.19871446 258.80270657 271.7258575 258.78672378 C275.56660042 258.7788374 279.40718684 258.77575564 283.24792862 258.78567123 C287.41013241 258.79625426 291.57194072 258.78362097 295.73413086 258.76863098 C297.55775855 258.77866923 297.55775855 258.77866923 299.4182272 258.78891027 C306.80846266 258.73710259 311.37464883 257.99403329 317.17529297 253.13768005 C325.28163859 243.49770147 322.48779297 235.75582849 322.48779297 222.38768005 C208.30779297 222.38768005 94.12779297 222.38768005 -23.51220703 222.38768005 Z M110.48779297 273.38768005 C110.37807663 274.2187175 110.26836029 275.04975494 110.15531921 275.90597534 C109.74037084 279.03117637 109.32107861 282.15575722 108.89897156 285.27999878 C108.63000481 287.28041931 108.36591564 289.28149373 108.10192871 291.28257751 C106.88523653 300.25727212 105.20108293 308.73827215 102.48779297 317.38768005 C102.15779297 318.70768005 101.82779297 320.02768005 101.48779297 321.38768005 C111.71779297 321.38768005 121.94779297 321.38768005 132.48779297 321.38768005 C132.69665615 315.21148355 132.69665615 315.21148355 132.87573242 309.03440857 C133.14772145 302.54836372 133.69326273 295.18221029 138.48779297 290.38768005 C141.76851797 288.74731756 144.43542938 288.25169799 148.05102539 288.18235779 C148.97175339 288.16241257 149.89248138 288.14246735 150.84111023 288.12191772 C151.83182022 288.10520523 152.82253021 288.08849274 153.84326172 288.0712738 C154.86003494 288.05049271 155.87680817 288.02971161 156.9243927 288.00830078 C160.1746236 287.94287958 163.42493574 287.88395469 166.67529297 287.82518005 C168.87777535 287.78198778 171.0802495 287.73837326 173.28271484 287.69432068 C178.6843215 287.58720578 184.08600909 287.48542548 189.48779297 287.38768005 C189.34749878 285.24147745 189.20041133 283.09571787 189.05029297 280.95018005 C188.96908203 279.75521912 188.88787109 278.56025818 188.80419922 277.3290863 C188.81123183 274.50197761 188.81123183 274.50197761 187.48779297 273.38768005 C185.08431011 273.29271298 182.70968315 273.26209144 180.3059082 273.27415466 C179.55473724 273.27400864 178.80356628 273.27386261 178.02963257 273.27371216 C175.53518838 273.27441142 173.04081794 273.28220441 170.54638672 273.2900238 C168.82145732 273.29188794 167.0965274 273.29331186 165.37159729 273.29431152 C160.82266793 273.29813708 156.2737703 273.30796768 151.72485352 273.3190155 C147.08659291 273.32922882 142.44832719 273.33380897 137.81005859 273.33885193 C128.70262275 273.34958992 119.59521049 273.36666678 110.48779297 273.38768005 Z M170.48779297 322.38768005 C170.48779297 362.97768005 170.48779297 403.56768005 170.48779297 445.38768005 C226.58779297 445.38768005 282.68779297 445.38768005 340.48779297 445.38768005 C340.48779297 404.79768005 340.48779297 364.20768005 340.48779297 322.38768005 C284.38779297 322.38768005 228.28779297 322.38768005 170.48779297 322.38768005 Z M58.48779297 339.38768005 C56.81706255 342.14982977 56.81706255 342.14982977 56.48779297 345.38768005 C57.57475402 348.52778976 58.39363481 350.63945765 61.1807251 352.54536438 C64.29408744 353.68205998 66.96182004 353.62682594 70.27587891 353.61473083 C71.28624962 353.61516891 71.28624962 353.61516891 72.31703186 353.61561584 C74.53554323 353.61422646 76.75371553 353.59868406 78.97216797 353.58299255 C80.51344621 353.57926102 82.05472683 353.57641471 83.5960083 353.57441711 C87.64681583 353.56679166 91.69747927 353.54715258 95.74822998 353.52500916 C99.88405407 353.50452725 104.0199015 353.49541039 108.15576172 353.4853363 C116.2665122 353.46390559 124.37711804 353.42873237 132.48779297 353.38768005 C132.48779297 347.77768005 132.48779297 342.16768005 132.48779297 336.38768005 C123.57767307 336.31986033 114.66772505 336.26483872 105.75740528 336.23224354 C101.61982941 336.21659823 97.48243954 336.19538088 93.3449707 336.16136169 C89.35087446 336.12872746 85.35695695 336.1108185 81.36273766 336.10304832 C79.84011713 336.09751208 78.31750622 336.08670106 76.79496193 336.07048988 C74.65956227 336.04866092 72.52489787 336.04571531 70.3894043 336.04710388 C69.17472977 336.04044205 67.96005524 336.03378021 66.70857239 336.0269165 C63.16124425 336.42425719 61.30645952 337.23106152 58.48779297 339.38768005 Z M221.48779297 460.38768005 C221.48779297 460.71768005 221.48779297 461.04768005 221.48779297 461.38768005 C243.92779297 461.38768005 266.36779297 461.38768005 289.48779297 461.38768005 C289.48779297 461.05768005 289.48779297 460.72768005 289.48779297 460.38768005 C267.04779297 460.38768005 244.60779297 460.38768005 221.48779297 460.38768005 Z " fill="#A3D3FE" transform="translate(106.51220703125,8.612319946289063)"/>
<path d="M0 0 C1.37064105 -0.00417707 2.74127865 -0.00965663 4.11190987 -0.01631981 C7.86378207 -0.03074403 11.61543404 -0.02653926 15.36731815 -0.019153 C19.41919567 -0.01441618 23.4710259 -0.02693563 27.52288818 -0.03717041 C35.45474756 -0.05435298 43.3865277 -0.05519964 51.31840086 -0.04995751 C57.76551841 -0.045914 64.21261257 -0.04736151 70.659729 -0.05270576 C71.57775523 -0.05345419 72.49578146 -0.05420261 73.44162667 -0.05497371 C75.30665255 -0.0565052 77.17167843 -0.05804355 79.0367043 -0.05958868 C96.51989484 -0.07331145 114.00304062 -0.06787732 131.48623013 -0.05640347 C147.47854796 -0.04646863 163.47075014 -0.05941649 179.46305013 -0.08333766 C195.88921432 -0.1077225 212.31532464 -0.11733821 228.74150658 -0.11068493 C237.96151468 -0.10719169 247.18143381 -0.10943185 256.40142822 -0.12693596 C264.24908977 -0.14165012 272.09659966 -0.14230354 279.94425821 -0.12486505 C283.94732664 -0.11634667 287.95012404 -0.11422584 291.95317841 -0.1295166 C295.61976002 -0.14334869 299.28583806 -0.13862011 302.95239043 -0.11927737 C304.90258967 -0.11373292 306.85281444 -0.12780115 308.80296516 -0.14263147 C317.37614598 -0.07056211 323.85641495 1.2741434 330.23779297 7.45018005 C339.35973985 17.72558951 338.05954024 30.935583 338.00537109 43.80906677 C338.01079769 45.97676563 338.01792335 48.1444608 338.02661133 50.31214905 C338.04478572 56.17591256 338.03780078 62.03939331 338.02509499 67.90316153 C338.01493425 74.05500111 338.02436943 80.20681725 338.03063965 86.35865784 C338.03790819 96.68982771 338.02835025 107.02088305 338.00927734 117.35203552 C337.98752177 129.27349725 337.99455378 141.19468518 338.01658297 153.11614025 C338.03477328 163.37297965 338.03727719 173.62973693 338.02682829 183.88658726 C338.02061185 190.00307455 338.01970649 196.11943343 338.03297424 202.23591232 C338.04458456 207.9898666 338.03641248 213.74347027 338.01339722 219.49738693 C338.00813725 221.60115478 338.00957701 223.70495247 338.01844788 225.80870819 C338.07525182 240.65635783 338.02727064 254.06540561 327.00341797 265.2900238 C321.34204292 270.01076666 314.48265973 273.51659395 307.02693176 273.50793457 C306.11407913 273.50930923 305.2012265 273.5106839 304.26071167 273.51210022 C303.26161774 273.50850494 302.2625238 273.50490967 301.2331543 273.50120544 C299.65241875 273.50142448 299.65241875 273.50142448 298.03974915 273.50164795 C294.54975337 273.5009502 291.05981069 273.49316421 287.56982422 273.4853363 C285.15272552 273.48347163 282.73562644 273.48204796 280.31852722 273.48104858 C273.95137492 273.47722726 267.58424536 273.46740023 261.21710205 273.4563446 C254.72204903 273.44612223 248.22699234 273.44154919 241.73193359 273.43650818 C228.98387671 273.42577765 216.23583673 273.40870581 203.48779297 273.38768005 C203.81779297 278.00768005 204.14779297 282.62768005 204.48779297 287.38768005 C206.52907379 287.37879761 208.57035461 287.36991516 210.67349243 287.36076355 C229.89087574 287.27905147 249.10823615 287.21950932 268.32575417 287.18043137 C278.2061715 287.15980598 288.08646136 287.13168579 297.96679688 287.08592224 C306.57848457 287.0460538 315.19007994 287.02024707 323.80185735 287.01132607 C328.36178158 287.00611134 332.9214417 286.99385531 337.48128128 286.96475983 C341.77405586 286.9375906 346.06645776 286.92923808 350.35931015 286.93524933 C351.93389156 286.93414976 353.50848555 286.92620467 355.08299255 286.91085815 C357.23584781 286.89090552 359.38730285 286.8957586 361.54019165 286.90666199 C362.74405329 286.90297482 363.94791492 286.89928764 365.18825722 286.89548874 C369.97215621 287.60910232 373.08591313 289.84077816 376.30029297 293.38768005 C378.60871752 297.27555298 378.61187606 300.95495796 378.60804749 305.41142273 C378.61010948 307.26237045 378.61010948 307.26237045 378.61221313 309.15071106 C378.60867424 310.51518274 378.60503944 311.87965417 378.60131836 313.24412537 C378.60103624 314.68312071 378.60119471 316.12211619 378.60176086 317.56111145 C378.60204787 321.46572134 378.59616668 325.37030054 378.58918691 329.2749033 C378.58293736 333.3561748 378.5823483 337.43744699 378.5811615 341.51872253 C378.57805291 349.24636018 378.56984588 356.97398368 378.55981201 364.7016151 C378.54863622 373.49960381 378.54313672 382.2975932 378.53811657 391.09558725 C378.52766288 409.19295954 378.51007257 427.29031866 378.48779297 445.38768005 C379.45201172 445.35287537 380.41623047 445.31807068 381.40966797 445.2822113 C382.67294922 445.25514099 383.93623047 445.22807068 385.23779297 445.20018005 C386.49076172 445.16537537 387.74373047 445.13057068 389.03466797 445.0947113 C392.64211662 445.40077312 393.99083026 445.83510651 396.48779297 448.38768005 C397.00537109 450.40550232 397.00537109 450.40550232 397.01904297 452.7040863 C397.02750244 453.54600525 397.03596191 454.38792419 397.04467773 455.25535583 C397.02590576 456.14464783 397.00713379 457.03393982 396.98779297 457.95018005 C396.97353271 458.85751892 396.95927246 459.76485779 396.94458008 460.69969177 C396.60046005 471.60368886 393.55516522 478.23271523 386.00341797 486.18455505 C378.66492978 492.61142981 370.98807932 494.53684814 361.46263123 494.53485107 C360.52790657 494.53852776 359.59318191 494.54220445 358.63013226 494.54599255 C355.48429166 494.55704399 352.33848407 494.56087574 349.19262695 494.56468201 C346.94242752 494.57094564 344.69222912 494.57759235 342.44203186 494.58459473 C336.31777004 494.60201566 330.19351603 494.61255986 324.06923556 494.62080026 C320.24305062 494.62594897 316.41686812 494.63202482 312.59068489 494.63831139 C301.99202354 494.65518362 291.39336435 494.66981745 280.79469204 494.67706013 C278.0445245 494.67896995 275.29435696 494.68089029 272.54418945 494.68284607 C271.51890677 494.68357168 271.51890677 494.68357168 270.47291131 494.68431195 C259.40911252 494.69260591 248.34542208 494.71793146 237.28167056 494.75042675 C225.91585627 494.7835362 214.55011632 494.80118 203.1842466 494.80470437 C196.80557878 494.80705458 190.42708212 494.81601129 184.04846001 494.84116554 C178.04433049 494.86445966 172.04048465 494.86867388 166.03632164 494.85840416 C163.83614407 494.85790899 161.63595247 494.8642237 159.43581772 494.87796021 C156.42415411 494.8957067 153.41350547 494.88855892 150.40184021 494.87542725 C149.53809688 494.88639649 148.67435354 494.89736574 147.78443617 494.90866739 C138.04601873 494.80666532 130.45216744 491.18668242 123.46435547 484.5322113 C116.3215517 476.78241037 114.12992247 468.58922246 114.11279297 458.20018005 C114.08830078 457.40676208 114.06380859 456.61334412 114.03857422 455.79588318 C114.03470703 455.02824646 114.03083984 454.26060974 114.02685547 453.4697113 C114.0186377 452.78111023 114.01041992 452.09250916 114.00195312 451.38304138 C114.48779297 449.38768005 114.48779297 449.38768005 118.48779297 445.38768005 C123.10779297 445.38768005 127.72779297 445.38768005 132.48779297 445.38768005 C132.48779297 419.97768005 132.48779297 394.56768005 132.48779297 368.38768005 C109.5268705 368.50621876 109.5268705 368.50621876 86.56616211 368.65794373 C82.09997559 368.67149353 82.09997559 368.67149353 80.00144958 368.67401123 C78.55265021 368.6785829 77.10386142 368.68906051 75.65513611 368.70440674 C57.48688705 368.88704591 57.48688705 368.88704591 50.18310547 363.7743988 C44.43541514 357.55488315 41.48779297 351.97414651 41.48779297 343.38768005 C42.29623369 336.45277445 45.23981166 331.63566137 50.17529297 326.70018005 C57.28756659 321.17991071 65.88689579 320.89148535 74.55029297 320.70018005 C75.60667969 320.6660199 76.66306641 320.63185974 77.75146484 320.59666443 C80.33013454 320.51498711 82.90849858 320.44558062 85.48779297 320.38768005 C88.8289547 309.79528587 92.0516172 299.42966882 93.48779297 288.38768005 C93.83637626 285.76913972 94.18526997 283.15064285 94.53466797 280.5322113 C94.67267822 279.49755737 94.67267822 279.49755737 94.81347656 278.44200134 C95.03821102 276.75722255 95.26299671 275.0724506 95.48779297 273.38768005 C94.94040781 273.39136723 94.39302265 273.3950544 93.82905006 273.3988533 C80.47328002 273.48742014 67.11756184 273.55323827 53.76156044 273.59492874 C47.30251722 273.61577036 40.84368654 273.64402598 34.38476562 273.68943787 C28.14722998 273.73301693 21.90989832 273.75684292 15.67222214 273.76718903 C13.29686652 273.77455869 10.92152159 273.78894981 8.5462532 273.81060028 C5.20962978 273.83979374 1.87384072 273.84362929 -1.46289062 273.84178162 C-2.43681763 273.85616272 -3.41074463 273.87054382 -4.41418457 273.88536072 C-15.10616161 273.82162837 -22.71533362 270.0825747 -30.37939453 262.75486755 C-37.13308882 255.25900905 -38.81819149 246.16672399 -38.77290344 236.37503052 C-38.77672899 235.48997434 -38.78055454 234.60491816 -38.78449601 233.6930421 C-38.7947817 230.73922423 -38.79084227 227.78560236 -38.78686523 224.83177185 C-38.7912142 222.70905885 -38.79639796 220.58634741 -38.80235291 218.46363831 C-38.81573529 212.70528285 -38.81632234 206.94699307 -38.81378961 201.1886251 C-38.81271924 196.37761559 -38.81760504 191.56661934 -38.82239503 186.75561267 C-38.8334879 175.402571 -38.83392905 164.04956241 -38.82788086 152.69651794 C-38.82184241 140.99438891 -38.83414938 129.29238016 -38.85545093 117.59027165 C-38.87308025 107.53484796 -38.87906612 97.4794625 -38.87581319 87.42402393 C-38.87400209 81.42216237 -38.87661919 75.42038658 -38.89052773 69.41853905 C-38.90312278 63.77223487 -38.90114595 58.12611781 -38.88811684 52.47981644 C-38.88575506 50.41187412 -38.8884714 48.34391857 -38.89673996 46.27599144 C-38.90724303 43.44420596 -38.89907818 40.61304418 -38.88642883 37.78128052 C-38.89380312 36.97084799 -38.9011774 36.16041546 -38.90877515 35.32542437 C-38.80619517 24.34380996 -35.20254812 16.25473981 -27.62548828 8.44236755 C-19.1813587 0.51251698 -11.19352591 -0.05326344 0 0 Z M-20.9314332 22.07200629 C-23.63079339 26.22083762 -24.07558811 30.25730276 -23.9932251 35.06295776 C-23.99664917 35.8022049 -24.00007324 36.54145203 -24.00360107 37.30310059 C-24.01018608 39.77106642 -23.98818991 42.23792984 -23.96630859 44.70579529 C-23.96508247 46.50886278 -23.96561855 48.31193219 -23.96776962 50.11499882 C-23.9686709 54.93391387 -23.94552518 59.75242985 -23.91732788 64.57125092 C-23.89451058 69.09670235 -23.89347339 73.6220578 -23.890625 78.14756775 C-23.86965419 91.37349116 -23.81380937 104.59934068 -23.76220703 117.82518005 C-23.67970703 147.38080505 -23.59720703 176.93643005 -23.51220703 207.38768005 C90.66779297 207.38768005 204.84779297 207.38768005 322.48779297 207.38768005 C322.57029297 176.80080505 322.65279297 146.21393005 322.73779297 114.70018005 C322.77420898 105.03519226 322.810625 95.37020447 322.84814453 85.41233826 C322.86152062 76.76374339 322.86152062 76.76374339 322.86956787 68.11514282 C322.87330099 64.25693601 322.88831641 60.39894839 322.91009521 56.540802 C322.93749421 51.62201305 322.94576466 46.70354368 322.94008207 41.78468549 C322.94127065 39.97790788 322.94922495 38.17111931 322.96465349 36.36440718 C322.98451236 33.92594272 322.97976881 31.48872424 322.96881104 29.05023193 C322.98046169 28.34128375 322.99211235 27.63233557 323.00411606 26.90190411 C322.96278266 23.4862763 322.54392097 21.48094253 320.77022934 18.53377056 C316.84219357 14.8403838 313.12404705 14.13830738 307.83766556 14.12482452 C306.70464044 14.11714223 305.57161532 14.10945994 304.40425611 14.10154486 C303.16429214 14.10327782 301.92432818 14.10501079 300.64678955 14.10679626 C299.3124497 14.10162664 297.97811295 14.09559967 296.64378047 14.08878946 C292.97832714 14.07267023 289.31295219 14.0690715 285.64746761 14.06759453 C281.6936782 14.06388981 277.73992929 14.04879336 273.78616333 14.0353241 C265.14150836 14.00817179 256.49687195 13.99611044 247.85218143 13.98730278 C242.45374471 13.98177583 237.05531513 13.97330077 231.65688324 13.96429443 C216.70805435 13.93991159 201.75923119 13.91931206 186.81038284 13.91254425 C185.37553327 13.91188555 185.37553327 13.91188555 183.91169684 13.91121355 C182.95285332 13.91077699 181.99400981 13.91034044 181.00611043 13.90989065 C179.06315565 13.90900372 177.12020087 13.9081106 175.17724609 13.9072113 C173.73158977 13.90654701 173.73158977 13.90654701 172.25672826 13.90586931 C156.63991206 13.89797312 141.0232825 13.86306341 125.4065384 13.81649226 C109.37032322 13.76905644 93.33420169 13.74414018 77.29791522 13.74180841 C68.29517879 13.73997544 59.29268558 13.7284844 50.29001617 13.69216919 C42.62416371 13.66135521 34.95862965 13.65113302 27.29272702 13.66764539 C23.3825728 13.67545445 19.47305963 13.6736212 15.56298447 13.6455307 C11.97991991 13.62002523 8.39797713 13.62246796 4.81491384 13.64671212 C2.91199882 13.65246707 1.00906419 13.6287728 -0.89369655 13.60386801 C-9.39555471 13.70186201 -15.32237657 15.41522287 -20.9314332 22.07200629 Z M-23.51220703 222.38768005 C-24.90912984 239.62676498 -24.90912984 239.62676498 -18.19970703 253.13768005 C-11.32558275 258.89276084 -5.39849384 258.81619 3.24145508 258.76863098 C4.54091788 258.77331095 5.84038069 258.77799093 7.17922115 258.78281271 C10.77986113 258.79532853 14.38026235 258.78914979 17.98090315 258.77985406 C21.86644573 258.77306626 25.75194726 258.78354346 29.63748169 258.79179382 C37.24676757 258.80513623 44.8559647 258.80225116 52.46525407 258.7935559 C58.64927795 258.78678176 64.83327694 258.78586147 71.01730347 258.78912735 C71.89732306 258.78958705 72.77734266 258.79004675 73.68402952 258.79052038 C75.47175194 258.79147955 77.25947434 258.79245219 79.04719675 258.79343815 C95.81212081 258.80199353 112.57699568 258.79215559 129.34191167 258.77603705 C143.72812852 258.76263374 158.11427275 258.76496179 172.50048828 258.77879333 C189.20527244 258.79484653 205.91001347 258.80116954 222.61480427 258.79195654 C224.39596366 258.79100089 226.17712306 258.79005778 227.95828247 258.78912735 C229.27284177 258.78843311 229.27284177 258.78843311 230.61395782 258.78772485 C236.79081599 258.78513418 242.9676468 258.78950761 249.14450073 258.79656601 C256.67165453 258.80497831 264.19871446 258.80270657 271.7258575 258.78672378 C275.56660042 258.7788374 279.40718684 258.77575564 283.24792862 258.78567123 C287.41013241 258.79625426 291.57194072 258.78362097 295.73413086 258.76863098 C297.55775855 258.77866923 297.55775855 258.77866923 299.4182272 258.78891027 C306.80846266 258.73710259 311.37464883 257.99403329 317.17529297 253.13768005 C325.28163859 243.49770147 322.48779297 235.75582849 322.48779297 222.38768005 C208.30779297 222.38768005 94.12779297 222.38768005 -23.51220703 222.38768005 Z M110.48779297 273.38768005 C110.37807663 274.2187175 110.26836029 275.04975494 110.15531921 275.90597534 C109.74037084 279.03117637 109.32107861 282.15575722 108.89897156 285.27999878 C108.63000481 287.28041931 108.36591564 289.28149373 108.10192871 291.28257751 C106.88523653 300.25727212 105.20108293 308.73827215 102.48779297 317.38768005 C102.15779297 318.70768005 101.82779297 320.02768005 101.48779297 321.38768005 C111.71779297 321.38768005 121.94779297 321.38768005 132.48779297 321.38768005 C132.69665615 315.21148355 132.69665615 315.21148355 132.87573242 309.03440857 C133.14772145 302.54836372 133.69326273 295.18221029 138.48779297 290.38768005 C141.76851797 288.74731756 144.43542938 288.25169799 148.05102539 288.18235779 C148.97175339 288.16241257 149.89248138 288.14246735 150.84111023 288.12191772 C151.83182022 288.10520523 152.82253021 288.08849274 153.84326172 288.0712738 C154.86003494 288.05049271 155.87680817 288.02971161 156.9243927 288.00830078 C160.1746236 287.94287958 163.42493574 287.88395469 166.67529297 287.82518005 C168.87777535 287.78198778 171.0802495 287.73837326 173.28271484 287.69432068 C178.6843215 287.58720578 184.08600909 287.48542548 189.48779297 287.38768005 C189.34749878 285.24147745 189.20041133 283.09571787 189.05029297 280.95018005 C188.96908203 279.75521912 188.88787109 278.56025818 188.80419922 277.3290863 C188.81123183 274.50197761 188.81123183 274.50197761 187.48779297 273.38768005 C185.08431011 273.29271298 182.70968315 273.26209144 180.3059082 273.27415466 C179.55473724 273.27400864 178.80356628 273.27386261 178.02963257 273.27371216 C175.53518838 273.27441142 173.04081794 273.28220441 170.54638672 273.2900238 C168.82145732 273.29188794 167.0965274 273.29331186 165.37159729 273.29431152 C160.82266793 273.29813708 156.2737703 273.30796768 151.72485352 273.3190155 C147.08659291 273.32922882 142.44832719 273.33380897 137.81005859 273.33885193 C128.70262275 273.34958992 119.59521049 273.36666678 110.48779297 273.38768005 Z M170.48779297 322.38768005 C170.48779297 362.97768005 170.48779297 403.56768005 170.48779297 445.38768005 C226.58779297 445.38768005 282.68779297 445.38768005 340.48779297 445.38768005 C340.48779297 404.79768005 340.48779297 364.20768005 340.48779297 322.38768005 C284.38779297 322.38768005 228.28779297 322.38768005 170.48779297 322.38768005 Z M58.48779297 339.38768005 C56.81706255 342.14982977 56.81706255 342.14982977 56.48779297 345.38768005 C57.57475402 348.52778976 58.39363481 350.63945765 61.1807251 352.54536438 C64.29408744 353.68205998 66.96182004 353.62682594 70.27587891 353.61473083 C71.28624962 353.61516891 71.28624962 353.61516891 72.31703186 353.61561584 C74.53554323 353.61422646 76.75371553 353.59868406 78.97216797 353.58299255 C80.51344621 353.57926102 82.05472683 353.57641471 83.5960083 353.57441711 C87.64681583 353.56679166 91.69747927 353.54715258 95.74822998 353.52500916 C99.88405407 353.50452725 104.0199015 353.49541039 108.15576172 353.4853363 C116.2665122 353.46390559 124.37711804 353.42873237 132.48779297 353.38768005 C132.48779297 347.77768005 132.48779297 342.16768005 132.48779297 336.38768005 C123.57767307 336.31986033 114.66772505 336.26483872 105.75740528 336.23224354 C101.61982941 336.21659823 97.48243954 336.19538088 93.3449707 336.16136169 C89.35087446 336.12872746 85.35695695 336.1108185 81.36273766 336.10304832 C79.84011713 336.09751208 78.31750622 336.08670106 76.79496193 336.07048988 C74.65956227 336.04866092 72.52489787 336.04571531 70.3894043 336.04710388 C69.17472977 336.04044205 67.96005524 336.03378021 66.70857239 336.0269165 C63.16124425 336.42425719 61.30645952 337.23106152 58.48779297 339.38768005 Z M221.48779297 460.38768005 C221.48779297 460.71768005 221.48779297 461.04768005 221.48779297 461.38768005 C243.92779297 461.38768005 266.36779297 461.38768005 289.48779297 461.38768005 C289.48779297 461.05768005 289.48779297 460.72768005 289.48779297 460.38768005 C267.04779297 460.38768005 244.60779297 460.38768005 221.48779297 460.38768005 Z " fill="#1F4571" transform="translate(106.51220703125,8.612319946289063)"/>
<path d="M0 0 C1.28216904 -0.01555183 1.28216904 -0.01555183 2.59024048 -0.03141785 C5.3934237 -0.05834537 8.19502653 -0.04885665 10.99829102 -0.03637695 C12.96070284 -0.0422918 14.92311106 -0.049541 16.88551331 -0.05805969 C20.99011087 -0.06991535 25.09416534 -0.06327351 29.19873047 -0.04394531 C34.44225918 -0.02106867 39.68416624 -0.04783787 44.92753506 -0.08900738 C48.97783797 -0.1146613 53.02775682 -0.11198472 57.07811165 -0.10111427 C59.01049331 -0.09963376 60.94290532 -0.1072457 62.87521172 -0.12436485 C80.9895405 -0.25880724 80.9895405 -0.25880724 87.41078186 4.69352722 C93.92108504 12.44533538 93.64911414 19.54368739 93.61401367 29.27758789 C93.62271585 30.86991835 93.63308481 32.46224043 93.64498901 34.05455017 C93.67170784 38.36668077 93.6729333 42.67846012 93.66786242 46.99065733 C93.66571866 50.59640006 93.67550081 54.20207234 93.68507326 57.80779994 C93.70724272 66.31780268 93.7081504 74.82762885 93.69604492 83.33764648 C93.68396717 92.10324658 93.70858656 100.86820447 93.75118506 109.63369501 C93.78646613 117.17196016 93.79841209 124.71002136 93.79190958 132.248366 C93.78829106 136.74518596 93.79348306 141.24154784 93.82133865 145.73829269 C93.84656709 149.96902959 93.8425424 154.19876873 93.81651688 158.42949104 C93.81180139 159.97700023 93.81719748 161.52458043 93.83376312 163.07200813 C93.91127204 170.8786542 93.91333555 177.61444442 88.8047781 183.9534483 C83.51651163 189.14845312 78.45198582 190.25563483 71.22705078 190.19628906 C70.37081116 190.20490463 69.51457153 190.2135202 68.63238525 190.22239685 C65.81914511 190.24498632 63.00690686 190.23833081 60.19360352 190.22924805 C58.22736823 190.23448688 56.26113545 190.24076432 54.29490662 190.24803162 C50.18020781 190.25842299 46.0658551 190.25389267 41.95117188 190.23925781 C36.69088974 190.22207532 31.43170048 190.24556549 26.17154026 190.28074741 C22.11273528 190.30275963 18.05419023 190.30127061 13.99534416 190.2929821 C12.05655659 190.29216462 10.11774955 190.29898909 8.17901802 190.31375313 C5.46258464 190.33126925 2.74809524 190.31659863 0.03173828 190.29394531 C-1.15694603 190.31148361 -1.15694603 190.31148361 -2.36964417 190.32937622 C-9.19847098 190.21412079 -13.677001 187.86067496 -18.52206135 183.10553074 C-23.50313767 176.67899551 -22.63746515 168.63694032 -22.58227539 160.91870117 C-22.58905841 159.32460026 -22.59796538 157.73050718 -22.60882568 156.13642883 C-22.63154459 151.82432256 -22.62281363 147.51281701 -22.60693026 143.20070076 C-22.59423267 138.67874713 -22.60602206 134.15684344 -22.61386108 129.6348877 C-22.62294644 122.04238696 -22.61099905 114.45012974 -22.5871582 106.85766602 C-22.55994899 98.09150917 -22.56876395 89.32593385 -22.59629023 80.55979109 C-22.61901212 73.02066317 -22.62216636 65.48170988 -22.60909688 57.94255877 C-22.60131926 53.44530747 -22.60021409 48.94832912 -22.61677933 44.45109558 C-22.63126983 40.22205194 -22.62111957 35.99375485 -22.59230804 31.76479149 C-22.58572155 30.21687749 -22.58755309 28.66890018 -22.59862137 27.12101173 C-22.69283526 12.60182271 -22.69283526 12.60182271 -18.52218533 7.22002888 C-12.868667 1.67230547 -7.82196574 -0.0847301 0 0 Z " fill="#A3D3FE" transform="translate(30.935302734375,313.337158203125)"/>
<path d="M0 0 C1.28216904 -0.01555183 1.28216904 -0.01555183 2.59024048 -0.03141785 C5.3934237 -0.05834537 8.19502653 -0.04885665 10.99829102 -0.03637695 C12.96070284 -0.0422918 14.92311106 -0.049541 16.88551331 -0.05805969 C20.99011087 -0.06991535 25.09416534 -0.06327351 29.19873047 -0.04394531 C34.44225918 -0.02106867 39.68416624 -0.04783787 44.92753506 -0.08900738 C48.97783797 -0.1146613 53.02775682 -0.11198472 57.07811165 -0.10111427 C59.01049331 -0.09963376 60.94290532 -0.1072457 62.87521172 -0.12436485 C80.9895405 -0.25880724 80.9895405 -0.25880724 87.41078186 4.69352722 C93.92108504 12.44533538 93.64911414 19.54368739 93.61401367 29.27758789 C93.62271585 30.86991835 93.63308481 32.46224043 93.64498901 34.05455017 C93.67170784 38.36668077 93.6729333 42.67846012 93.66786242 46.99065733 C93.66571866 50.59640006 93.67550081 54.20207234 93.68507326 57.80779994 C93.70724272 66.31780268 93.7081504 74.82762885 93.69604492 83.33764648 C93.68396717 92.10324658 93.70858656 100.86820447 93.75118506 109.63369501 C93.78646613 117.17196016 93.79841209 124.71002136 93.79190958 132.248366 C93.78829106 136.74518596 93.79348306 141.24154784 93.82133865 145.73829269 C93.84656709 149.96902959 93.8425424 154.19876873 93.81651688 158.42949104 C93.81180139 159.97700023 93.81719748 161.52458043 93.83376312 163.07200813 C93.91127204 170.8786542 93.91333555 177.61444442 88.8047781 183.9534483 C83.51651163 189.14845312 78.45198582 190.25563483 71.22705078 190.19628906 C70.37081116 190.20490463 69.51457153 190.2135202 68.63238525 190.22239685 C65.81914511 190.24498632 63.00690686 190.23833081 60.19360352 190.22924805 C58.22736823 190.23448688 56.26113545 190.24076432 54.29490662 190.24803162 C50.18020781 190.25842299 46.0658551 190.25389267 41.95117188 190.23925781 C36.69088974 190.22207532 31.43170048 190.24556549 26.17154026 190.28074741 C22.11273528 190.30275963 18.05419023 190.30127061 13.99534416 190.2929821 C12.05655659 190.29216462 10.11774955 190.29898909 8.17901802 190.31375313 C5.46258464 190.33126925 2.74809524 190.31659863 0.03173828 190.29394531 C-1.15694603 190.31148361 -1.15694603 190.31148361 -2.36964417 190.32937622 C-9.19847098 190.21412079 -13.677001 187.86067496 -18.52206135 183.10553074 C-23.50313767 176.67899551 -22.63746515 168.63694032 -22.58227539 160.91870117 C-22.58905841 159.32460026 -22.59796538 157.73050718 -22.60882568 156.13642883 C-22.63154459 151.82432256 -22.62281363 147.51281701 -22.60693026 143.20070076 C-22.59423267 138.67874713 -22.60602206 134.15684344 -22.61386108 129.6348877 C-22.62294644 122.04238696 -22.61099905 114.45012974 -22.5871582 106.85766602 C-22.55994899 98.09150917 -22.56876395 89.32593385 -22.59629023 80.55979109 C-22.61901212 73.02066317 -22.62216636 65.48170988 -22.60909688 57.94255877 C-22.60131926 53.44530747 -22.60021409 48.94832912 -22.61677933 44.45109558 C-22.63126983 40.22205194 -22.62111957 35.99375485 -22.59230804 31.76479149 C-22.58572155 30.21687749 -22.58755309 28.66890018 -22.59862137 27.12101173 C-22.69283526 12.60182271 -22.69283526 12.60182271 -18.52218533 7.22002888 C-12.868667 1.67230547 -7.82196574 -0.0847301 0 0 Z M-6.62217808 15.80038357 C-8.52576393 18.50031698 -8.3129582 20.55753446 -8.31625366 23.84312439 C-8.32471313 25.13724747 -8.33317261 26.43137054 -8.34188843 27.76470947 C-8.33605527 29.20202762 -8.32991075 30.63934453 -8.32348633 32.07666016 C-8.3275507 33.58783854 -8.33289182 35.09901395 -8.3394165 36.61018372 C-8.35311324 40.71765553 -8.3477815 44.82490173 -8.33827925 48.93237758 C-8.33069343 53.22800103 -8.33772539 57.52360493 -8.34243774 61.81922913 C-8.34789904 69.0346321 -8.34069453 76.24994303 -8.32641602 83.46533203 C-8.31009494 91.80928904 -8.31537251 100.15302608 -8.33189523 108.49697775 C-8.34550685 115.65714557 -8.34743117 122.81724715 -8.33957922 129.97742373 C-8.33490012 134.25546757 -8.33428422 138.53340802 -8.34418869 142.81144524 C-8.35285117 146.83422457 -8.34684974 150.85672025 -8.32950592 154.87946892 C-8.32553695 156.35650155 -8.32668216 157.83355804 -8.33329391 159.31058121 C-8.34148255 161.32557069 -8.32939651 163.3406123 -8.31625366 165.35557556 C-8.31512259 166.48364089 -8.31399151 167.61170622 -8.31282616 168.77395535 C-7.89023472 172.00771148 -7.26404152 173.40220823 -4.93530273 175.6628418 C-2.26020815 176.06592414 0.00840802 176.2100737 2.68554688 176.18041992 C3.45984543 176.1874292 4.23414398 176.19443848 5.03190613 176.20166016 C7.59398157 176.21927938 10.15495415 176.20760301 12.71704102 176.1940918 C14.49679273 176.19678587 16.276543 176.20066759 18.05628967 176.20568848 C21.78799439 176.21158905 25.51931632 176.20300376 29.25097656 176.18432617 C34.03412624 176.16155266 38.81637739 176.17464573 43.59949398 176.19861603 C47.2755459 176.21307314 50.95138497 176.20846817 54.62744331 176.19810486 C56.39089629 176.19543646 58.15436859 176.19871131 59.917799 176.20802307 C62.38387047 176.21818565 64.84848978 176.20269246 67.31445312 176.18041992 C68.04341797 176.18851685 68.77238281 176.19661377 69.5234375 176.20495605 C72.71414031 176.15158348 74.6651544 175.96202123 77.25157261 174.02530003 C79.60473136 170.95919024 79.567494 169.19869644 79.57263184 165.35557556 C79.58955078 163.41016121 79.58955078 163.41016121 79.60681152 161.42544556 C79.59903452 159.99017111 79.59084185 158.55489886 79.58227539 157.11962891 C79.58769605 155.60667751 79.59481839 154.0937314 79.60351562 152.58079529 C79.62175736 148.47339215 79.61467853 144.36639071 79.60199928 140.25898051 C79.5918778 135.9628902 79.60126241 131.66683445 79.60754395 127.3707428 C79.61482206 120.15709247 79.60522757 112.94360593 79.58618164 105.72998047 C79.56440426 97.38535635 79.57146975 89.04112302 79.59348726 80.69650835 C79.6116268 73.53547183 79.61420695 66.3745531 79.60373259 59.21350104 C79.59749072 54.93491651 79.59668111 50.65651581 79.60987854 46.37794304 C79.62141579 42.35671333 79.61345083 38.33598864 79.59030151 34.31481361 C79.58500331 32.83736384 79.5865472 31.3598717 79.59535217 29.88243866 C79.6062453 27.86934913 79.59017708 25.85616693 79.57263184 23.84312439 C79.57112373 22.71543609 79.56961563 21.58774778 79.56806183 20.42588711 C79.31356955 17.57204566 79.31356955 17.57204566 77.25157261 15.80038357 C74.01780786 14.11828381 70.8737169 14.24500751 67.31445312 14.2746582 C66.53840225 14.26940125 65.76235138 14.26414429 64.96278381 14.25872803 C62.40149725 14.24554035 59.84083373 14.25426065 57.27954102 14.2644043 C55.49882386 14.26238341 53.71810751 14.25947184 51.93739319 14.25570679 C48.20753084 14.25128529 44.47788415 14.25770962 40.74804688 14.27172852 C35.96384262 14.28883278 31.1801428 14.27897037 26.39595699 14.26101112 C22.71997769 14.25017916 19.04411833 14.2536167 15.36813545 14.2613945 C13.60385643 14.26339749 11.83956657 14.26093376 10.07530022 14.25395584 C7.61175484 14.24634955 5.14903095 14.25793283 2.68554688 14.2746582 C1.58906326 14.26554916 1.58906326 14.26554916 0.47042847 14.2562561 C-3.28387205 14.27480334 -3.28387205 14.27480334 -6.62217808 15.80038357 Z " fill="#1F4571" transform="translate(30.935302734375,313.337158203125)"/>
<path d="M0 0 C71.28 0 142.56 0 216 0 C216 47.52 216 95.04 216 144 C213.03 144 210.06 144 207 144 C206.99761165 143.31731898 206.99522329 142.63463797 206.99276257 141.93126965 C206.93366476 125.33150318 206.85814845 108.73190128 206.76428509 92.13229656 C206.71929098 84.10489399 206.67988476 76.07753614 206.65356445 68.05004883 C206.63061353 61.05449774 206.59724832 54.05908776 206.55129844 47.06364852 C206.52732674 43.35849356 206.50862396 39.65347869 206.50238609 35.94824791 C206.49523299 31.81514883 206.46483283 27.68253832 206.43237305 23.54956055 C206.43380814 22.31669815 206.43524323 21.08383575 206.4367218 19.81361389 C206.42418365 18.69040741 206.41164551 17.56720093 206.39872742 16.40995789 C206.39181397 14.94292435 206.39181397 14.94292435 206.38476086 13.44625378 C206.15273377 11.01153193 206.15273377 11.01153193 204.94718647 9.18484592 C201.92998162 7.34890318 198.87293501 7.59461216 195.44628906 7.63250732 C194.28180677 7.62760406 194.28180677 7.62760406 193.09379959 7.62260175 C190.4842112 7.61530038 187.87517939 7.62949767 185.265625 7.64355469 C183.39815169 7.64276411 181.53067855 7.64066774 179.66320801 7.63735962 C174.58475564 7.63221638 169.5065052 7.64577947 164.42808533 7.66288662 C159.12035609 7.67789814 153.81262973 7.67674802 148.50488281 7.67755127 C139.59045962 7.68124637 130.67611332 7.69622573 121.76171875 7.71875 C110.31104567 7.74762336 98.86043453 7.75797283 87.409729 7.7624321 C77.57697286 7.76640965 67.74423024 7.77891234 57.91148376 7.79277897 C54.7452294 7.79688118 51.57897551 7.79980519 48.41271973 7.80257416 C43.44203344 7.80746233 38.47138484 7.81765764 33.50071716 7.83201218 C31.67333822 7.83654043 29.8459542 7.83937508 28.01856995 7.84041977 C25.53024557 7.84216177 23.04201592 7.85003491 20.55371094 7.85955811 C19.460968 7.85825838 19.460968 7.85825838 18.34614944 7.8569324 C15.28568381 7.87458443 12.92814108 8.02395297 10 9 C9.67 53.55 9.34 98.1 9 144 C6.03 144 3.06 144 0 144 C0 96.48 0 48.96 0 0 Z " fill="#9FCFFA" transform="translate(254,310)"/>
<path d="M0 0 C25.74 0 51.48 0 78 0 C78.495 4.455 78.495 4.455 79 9 C80.24172463 11.77909799 81.11332553 13.38925662 83.61257935 15.11074829 C87.00890333 16.37579009 90.31009804 16.29489008 93.88623047 16.29052734 C95.07233917 16.30060318 95.07233917 16.30060318 96.28240967 16.31088257 C98.89406636 16.32986608 101.50546612 16.33378693 104.1171875 16.3359375 C105.93555812 16.34236521 107.7539277 16.34909355 109.57229614 16.35610962 C113.38367104 16.36808328 117.19495528 16.37179035 121.00634766 16.37060547 C125.8844864 16.37040228 130.76204255 16.39770376 135.64004326 16.43214989 C139.39591123 16.4544137 143.15163887 16.45844317 146.90756607 16.45738602 C148.70566948 16.45974278 150.50377671 16.46857057 152.30181503 16.48405075 C154.81994897 16.50370049 157.33682523 16.49787728 159.85498047 16.48583984 C160.96333755 16.50269836 160.96333755 16.50269836 162.09408569 16.51989746 C165.51001166 16.47851247 168.18808943 15.92883611 171.38406372 14.71963501 C175.30219644 11.15905491 175.30219644 11.15905491 176 0 C201.74 0 227.48 0 254 0 C252.99994721 8.00042234 251.90353755 11.58640237 246.0625 16.75 C240.35711812 20.94170913 235.84954803 21.29370796 228.98661804 21.27415466 C227.62272838 21.28200968 227.62272838 21.28200968 226.23128539 21.29002339 C223.18368681 21.30502834 220.13625604 21.30572865 217.08862305 21.30639648 C214.9038464 21.31401761 212.71907244 21.32244503 210.53430176 21.33161926 C204.59829442 21.3535753 198.66233859 21.36236464 192.72629523 21.36744571 C189.01770208 21.37108787 185.30912244 21.3773272 181.60053444 21.3844471 C169.33032718 21.40768056 157.06015483 21.42165605 144.78992607 21.42498314 C143.79816926 21.42525735 143.79816926 21.42525735 142.78637695 21.42553711 C141.7934053 21.42580793 141.7934053 21.42580793 140.78037361 21.42608423 C130.7217477 21.4294054 120.6632991 21.45202087 110.60473633 21.48706055 C98.91770524 21.52763625 87.23081007 21.55099548 75.54370528 21.55178314 C69.35959878 21.55257643 63.17575141 21.56133907 56.99170494 21.58978081 C51.17462793 21.61593636 45.35802536 21.6181803 39.54091644 21.60212517 C37.40762359 21.60030872 35.2743036 21.60701894 33.14106941 21.62294388 C30.22492922 21.64338373 27.31045225 21.63286447 24.39433289 21.61473083 C23.55336475 21.6279308 22.71239661 21.64113077 21.84594458 21.65473074 C15.0681572 21.55869454 10.38638879 19.19471838 5.47077864 14.55733293 C1.43630244 10.0760106 0 5.95362066 0 0 Z " fill="#A1D1FC" transform="translate(235,468)"/>
<path d="M0 0 C1.18154663 -0.00430527 1.18154663 -0.00430527 2.38696289 -0.00869751 C4.05127685 -0.01073772 5.71561481 -0.00521082 7.37988281 0.00732422 C9.92827947 0.02337941 12.47509021 0.00747506 15.0234375 -0.01171875 C16.6406285 -0.00973631 18.25781852 -0.00589261 19.875 0 C20.63756104 -0.00607269 21.40012207 -0.01214539 22.18579102 -0.0184021 C27.43215504 0.05139185 27.43215504 0.05139185 29.890625 1.73974609 C31.48518484 4.26620122 31.75632143 6.43918747 31.9375 9.3984375 C31.3125 11.6484375 31.3125 11.6484375 29.9375 13.3984375 C25.92134891 15.43379668 22.52920129 15.65565742 18.0625 15.6640625 C16.74765625 15.66664063 15.4328125 15.66921875 14.078125 15.671875 C13.39814453 15.66768555 12.71816406 15.66349609 12.01757812 15.65917969 C9.94371283 15.64846959 7.87071362 15.6590978 5.796875 15.671875 C4.48203125 15.66929687 3.1671875 15.66671875 1.8125 15.6640625 C0.01425781 15.66067871 0.01425781 15.66067871 -1.8203125 15.65722656 C-5.01647906 15.40211086 -7.2156931 14.84118067 -10.0625 13.3984375 C-12.05692942 10.86007278 -12.0737263 9.58180035 -11.875 6.3359375 C-10.05231545 -0.25376818 -6.20300368 -0.04939793 0 0 Z " fill="#1E4570" transform="translate(246.0625,241.6015625)"/>
<path d="M0 0 C0.79857422 -0.01546875 1.59714844 -0.0309375 2.41992188 -0.046875 C6.4162866 -0.02038708 8.59876632 0.22366964 12.09765625 2.30859375 C14.0625 4.5 14.0625 4.5 14.5625 8.0625 C14.0625 11.5 14.0625 11.5 12.83007812 13.18994141 C10.53030642 14.89444071 9.12714745 14.88704089 6.28125 14.8984375 C5.35699219 14.90230469 4.43273437 14.90617187 3.48046875 14.91015625 C2.51753906 14.89855469 1.55460937 14.88695312 0.5625 14.875 C-0.88189453 14.89240234 -0.88189453 14.89240234 -2.35546875 14.91015625 C-3.27972656 14.90628906 -4.20398438 14.90242188 -5.15625 14.8984375 C-6.00123047 14.89505371 -6.84621094 14.89166992 -7.71679688 14.88818359 C-10.43913846 14.41231254 -11.32439388 13.71898263 -12.9375 11.5 C-13.41336145 7.76108862 -13.60178385 5.49112564 -11.46875 2.30859375 C-7.73869857 -0.35655102 -4.47455942 -0.08625657 0 0 Z " fill="#234975" transform="translate(65.9375,470.5)"/>
</svg>
